
<svg xmlns="http://www.w3.org/2000/svg" style="display:none;">
     <symbol id="searchSvg" viewBox="0 0 25 25">  
        <path fill-rule="evenodd" clip-rule="evenodd" d="M17.7347 16.6748L20.2803 19.2196C20.9875 19.9266 19.927 20.9874 19.2197 20.2804L16.674 17.7354C13.616 20.2576 9.10466 20.0648 6.26992 17.2301C3.24336 14.2035 3.24336 9.29649 6.26992 6.26992C9.29649 3.24336 14.2035 3.24336 17.2301 6.26992C20.0651 9.10493 20.2576 13.6168 17.7347 16.6748ZM16.1694 7.33058C13.7286 4.88981 9.77136 4.88981 7.33058 7.33058C4.88981 9.77136 4.88981 13.7286 7.33058 16.1694C9.77136 18.6102 13.7286 18.6102 16.1694 16.1694C18.6102 13.7286 18.6102 9.77136 16.1694 7.33058Z" fill="currentColor"/>  
    </symbol>

    <symbol id="burgerMenuSvg" viewBox="0 0 20 17">  
       <path fill-rule="evenodd" clip-rule="evenodd" d="M0 1C0 0.447715 0.447715 0 1 0H19C19.5523 0 20 0.447715 20 1C20 1.55228 19.5523 2 19 2H1C0.447715 2 0 1.55228 0 1ZM0 8C0 7.44772 0.447715 7 1 7H19C19.5523 7 20 7.44772 20 8C20 8.55228 19.5523 9 19 9H1C0.447715 9 0 8.55228 0 8ZM1 15C0.447715 15 0 15.4477 0 16C0 16.5523 0.447715 17 1 17H19C19.5523 17 20 16.5523 20 16C20 15.4477 19.5523 15 19 15H1Z" fill="currentColor"/>
    </symbol>
</svg>



